<?xml version="1.0" encoding="UTF-8"?>
<svg version="1.1" xmlns="http://www.w3.org/2000/svg" width="826" height="548">
<path d="M0 0 C272.58 0 545.16 0 826 0 C826 180.84 826 361.68 826 548 C553.42 548 280.84 548 0 548 C0 367.16 0 186.32 0 0 Z " fill="#297FB8" transform="translate(0,0)"/>
<path d="M0 0 C3.96 0 7.92 0 12 0 C12.4031543 0.75095947 12.80630859 1.50191895 13.22167969 2.27563477 C14.73428566 5.09211404 16.24772849 7.90814159 17.76171875 10.72387695 C18.41374127 11.93691588 19.06544101 13.15012837 19.71679688 14.36352539 C24.30735489 22.9144958 28.87481018 31.37129426 34.1875 39.5 C36.89000027 43.65760751 39.52165862 47.83722189 42.03051758 52.1159668 C53.5689004 71.78335459 66.51215136 90.5765263 81.35546875 107.8828125 C83.7649257 110.70181627 86.07989688 113.58681826 88.375 116.5 C91.08220681 119.90038274 93.80805603 123.03605203 97 126 C97.99 126.96292969 97.99 126.96292969 99 127.9453125 C116.14704298 144.13347479 135.89121544 154.59372236 159.82592773 154.41967773 C189.05133257 153.51013096 214.20777702 135.83758927 236 118 C236.61246582 117.49936035 237.22493164 116.9987207 237.85595703 116.48291016 C244.82932869 110.74898835 251.54555625 104.75534483 258.1640625 98.6171875 C260.76994211 96.21231237 263.40906907 93.85209493 266.0625 91.5 C269.70357465 88.23881275 273.19059164 84.85134902 276.625 81.375 C280.3268739 77.63147351 284.10276827 74.09152769 288.10546875 70.67578125 C290.86660325 68.23345816 293.41468811 65.59445739 296 62.96875 C298.56305228 60.44574541 301.27345824 58.12437183 304 55.78125 C306.77924984 53.30598061 309.3588363 50.6513409 311.96875 48 C315.17533699 44.84274512 318.57422412 41.91555394 322 39 C318.33268086 40.62024076 315.44833788 42.89363277 312.3125 45.375 C305.75865632 50.4994123 299.00042658 55.29628396 292.18359375 60.0625 C289.5953871 61.87241824 287.02306794 63.69971714 284.47265625 65.5625 C277.77446105 70.44874504 270.93667596 75.0533706 263.9375 79.5 C263.12748535 80.01691406 262.3174707 80.53382813 261.48291016 81.06640625 C257.75133858 83.41183151 254.20216785 85.5795489 250 87 C250 87.66 250 88.32 250 89 C248.96875 89.4125 247.9375 89.825 246.875 90.25 C244.36976796 91.31509865 242.4599229 92.37205311 240.1875 93.9375 C236.72480528 96.17806717 233.32009187 97.55358388 229.46484375 98.97265625 C226.94791691 99.94643601 226.94791691 99.94643601 224.61328125 101.46875 C203.07992265 114.08620377 170.54418619 116.41464502 146.79296875 110.4453125 C135.34727891 107.37035105 125.17124064 103.04326344 115 97 C114.07316406 96.46890625 113.14632812 95.9378125 112.19140625 95.390625 C100.60628303 88.43610824 90.20329395 79.22101831 80.28515625 70.09765625 C78.72813143 68.66838732 77.15157579 67.26017409 75.55859375 65.87109375 C66.83430321 58.23904615 59.24803854 49.66445186 51.66796875 40.9140625 C49.8419181 38.81859454 47.98354918 36.75417748 46.125 34.6875 C42.35828268 30.46266842 38.79043416 26.09471898 35.23046875 21.6953125 C33.15500377 19.18730753 31.00918186 16.7767055 28.8125 14.375 C25.05410903 10.20988936 21.9665671 5.75324955 19 1 C29.90744043 -0.51726374 29.90744043 -0.51726374 34.5859375 2.875 C36.90676645 5.48084304 38.96802627 8.16378427 41 11 C42.32547181 12.67292559 43.6586478 14.33978019 45 16 C45.97259766 17.23363281 45.97259766 17.23363281 46.96484375 18.4921875 C49.80747918 21.99501274 52.82823664 25.31979933 55.8671875 28.65234375 C57.67274171 30.63977613 59.43736145 32.6515348 61.1875 34.6875 C64.70616789 38.72531561 68.34964058 42.64411891 72 46.5625 C72.58160889 47.18793701 73.16321777 47.81337402 73.76245117 48.45776367 C98.14202058 74.53640101 129.76174443 100.28020966 166.92578125 102.203125 C183.02347719 102.49176573 196.97523708 99.8681964 212 94 C214.86362418 92.99077753 217.73028146 91.99068781 220.59765625 90.9921875 C223.10008743 90.03887632 223.10008743 90.03887632 225.55859375 88.3828125 C228 87 228 87 232 87 C232 86.34 232 85.68 232 85 C232.54301758 84.70867187 233.08603516 84.41734375 233.64550781 84.1171875 C244.08664835 78.49673436 254.26670548 72.79290345 264 66 C265.46089601 65.0110332 266.92325963 64.02423247 268.38671875 63.0390625 C276.84359788 57.33023849 285.15658382 51.48663408 293.28320312 45.31616211 C297.55483103 42.0731878 301.87331172 38.91212561 306.25 35.8125 C310.5475955 32.76789341 314.79664728 29.6747545 319 26.5 C328.25513268 19.52493974 337.68307479 12.82345087 347.3125 6.375 C347.96516846 5.93679932 348.61783691 5.49859863 349.2902832 5.04711914 C353.87662439 2 353.87662439 2 355 2 C357.36986638 20.96622292 357.36986638 20.96622292 353.70507812 27.20410156 C350.3104963 31.02450549 346.20293652 33.84813085 341.95800781 36.65185547 C339.05871622 38.64810087 336.62117831 40.95686881 334.0625 43.375 C331.05796041 46.13137703 328.03401857 48.84760361 324.9375 51.5 C320.90125742 54.99972771 317.19034171 58.79514192 313.4375 62.59375 C310.74716094 65.24959753 307.93426475 67.70135432 305.0625 70.15625 C302.61075311 72.34796313 300.31114427 74.66067104 298 77 C295.14476317 79.88989828 292.28499804 82.68451745 289.1875 85.3125 C285.42858654 88.52244435 281.9731121 91.98835814 278.5 95.5 C273.8243912 100.21660551 269.06853341 104.70522212 264 109 C262.8542092 109.99594863 261.70981753 110.99350793 260.56640625 111.9921875 C235.34644977 134.00679177 207.06984235 158.50397179 173.06640625 164.5703125 C170.94975774 164.91855611 170.94975774 164.91855611 169 166 C162.99972684 166.2107534 157.00201396 166.11629159 151 166 C149.57107422 165.97486328 149.57107422 165.97486328 148.11328125 165.94921875 C140.02126819 165.46836908 131.23861057 162.61930529 124 159 C124 158.34 124 157.68 124 157 C122.99324219 156.76152344 121.98648438 156.52304687 120.94921875 156.27734375 C116.73057864 155.06399461 113.41319198 153.02840828 109.8125 150.5625 C108.83531006 149.89988159 108.83531006 149.89988159 107.83837891 149.22387695 C101.34341944 144.71326804 95.63170293 139.53350727 90 134 C88.89456393 132.93355988 87.78909421 131.86715463 86.68359375 130.80078125 C79.94592564 124.24152339 73.74509228 117.45975105 68 110 C67.57992676 109.46165527 67.15985352 108.92331055 66.72705078 108.36865234 C59.71894556 99.36548348 53.1874839 90.04047496 46.75 80.625 C46.36384521 80.06294861 45.97769043 79.50089722 45.57983398 78.92181396 C44.48028051 77.31864061 43.38841002 75.71020601 42.296875 74.1015625 C41.66104492 73.16650879 41.02521484 72.23145508 40.37011719 71.26806641 C39 69 39 69 39 67 C38.34 67 37.68 67 37 67 C36.64301025 66.33645508 36.28602051 65.67291016 35.91821289 64.98925781 C32.22267427 58.1617547 28.37542879 51.43999766 24.4375 44.75 C17.94804893 33.6788884 11.59730787 22.53379131 5.32324219 11.33935547 C4.11504695 9.20339112 2.8766078 7.08798033 1.6328125 4.97265625 C0 2 0 2 0 0 Z " fill="#F5F8FB" transform="translate(318,343)"/>
<path d="M0 0 C1.09691162 -0.01385742 2.19382324 -0.02771484 3.32397461 -0.04199219 C10.29452488 -0.00191034 16.14092171 1.02468537 22.6875 3.375 C24.24893736 3.87830867 25.81130616 4.37874619 27.375 4.875 C31.24814717 6.17971095 34.95040121 7.72205246 38.6875 9.375 C39.63625 9.725625 40.585 10.07625 41.5625 10.4375 C43.6875 11.375 43.6875 11.375 44.6875 13.375 C46.20016847 14.25988116 47.74967289 15.08206117 49.3125 15.875 C65.77401759 24.67009284 80.4065528 36.18862193 93.9765625 48.921875 C96.95489828 51.61696847 100.04861989 53.98617358 103.359375 56.25390625 C104.01679687 56.80884766 104.01679687 56.80884766 104.6875 57.375 C104.6875 58.035 104.6875 58.695 104.6875 59.375 C105.25984375 59.61863281 105.8321875 59.86226562 106.421875 60.11328125 C109.09183538 61.60017298 110.82579007 63.35583908 112.9375 65.5625 C115.72610468 68.4192302 118.52056873 71.16498433 121.5625 73.75 C124.93307765 76.63714819 128.07253521 79.71747378 131.1875 82.875 C134.24087286 85.96992241 137.31073732 88.99434317 140.625 91.8125 C144.16432477 94.82855704 147.42216461 98.06972012 150.6875 101.375 C154.46472941 105.19355195 158.28026346 108.86322394 162.375 112.34375 C165.66108968 115.23018012 168.81924704 118.24845551 172 121.25 C177.30474294 126.24471693 182.69721122 130.99096247 188.41796875 135.5078125 C189.16691406 136.12398437 189.91585938 136.74015625 190.6875 137.375 C191.44160156 137.88289062 192.19570313 138.39078125 192.97265625 138.9140625 C195.86858223 143.06994717 195.09980807 147.70581692 194.9375 152.625 C194.91945313 153.65625 194.90140625 154.6875 194.8828125 155.75 C194.83572712 158.29261064 194.7699805 160.83333162 194.6875 163.375 C184.21821293 158.19991106 175.02011428 151.01885567 165.68359375 144.078125 C160.88195726 140.50942968 156.04227905 136.99593374 151.1875 133.5 C150.43138428 132.95520996 149.67526855 132.41041992 148.89624023 131.84912109 C147.46085929 130.8149868 146.02539828 129.78096363 144.58984375 128.74707031 C142.11711431 126.96360786 139.65154011 125.17044386 137.1875 123.375 C136.34703125 122.76398438 135.5065625 122.15296875 134.640625 121.5234375 C132.9997542 120.32968229 131.3593306 119.13530924 129.72070312 117.93847656 C106.55984038 100.81971301 106.55984038 100.81971301 81.6875 86.375 C81.6875 85.715 81.6875 85.055 81.6875 84.375 C80.81867188 84.10429688 79.94984375 83.83359375 79.0546875 83.5546875 C75.80611152 82.41655531 72.87372874 81.06715423 69.8125 79.5 C68.75804687 78.96761719 67.70359375 78.43523437 66.6171875 77.88671875 C64.96590937 77.03465923 63.32007928 76.17111752 61.6953125 75.26953125 C46.03736088 66.74464648 27.13693351 64.15758119 9.5625 64.0625 C8.28403198 64.05416138 8.28403198 64.05416138 6.97973633 64.0456543 C1.31682356 64.11068136 -3.83907383 64.95688504 -9.3125 66.375 C-10.25738281 66.59800781 -11.20226562 66.82101563 -12.17578125 67.05078125 C-36.9472854 73.49058217 -56.22450023 88.66365204 -74.58203125 105.83203125 C-77.13756657 108.21207917 -79.7463415 110.51397129 -82.375 112.8125 C-88.10703718 117.95663593 -93.18839806 123.64142338 -98.3125 129.375 C-99.49005859 130.66277344 -99.49005859 130.66277344 -100.69140625 131.9765625 C-104.45648913 136.10178374 -108.10123329 140.29146284 -111.625 144.625 C-112.3675 145.52347656 -113.11 146.42195312 -113.875 147.34765625 C-115.6864383 149.59743939 -117.41412978 151.86012535 -119.125 154.18359375 C-126.52662039 163.91380015 -126.52662039 163.91380015 -131.74609375 165.26171875 C-134.73442705 165.25115927 -137.40042261 165.02557048 -140.3125 164.375 C-139.81481961 160.07213828 -137.06625873 157.42332131 -134.3125 154.3125 C-133.29989102 153.14530298 -132.28818433 151.97732261 -131.27734375 150.80859375 C-130.77315918 150.22835449 -130.26897461 149.64811523 -129.74951172 149.05029297 C-127.73579315 146.70266524 -125.80746562 144.28969557 -123.875 141.875 C-120.00859833 137.1200895 -115.92721132 132.60838355 -111.73657227 128.140625 C-109.15335988 125.38519845 -106.63597696 122.59605608 -104.1796875 119.7265625 C-99.71957822 114.60617136 -94.93426528 109.81071542 -90.13476562 105.01196289 C-88.57389673 103.44891266 -87.02122112 101.87802635 -85.46875 100.30664062 C-58.59221097 73.27546435 -25.12282197 52.47420811 14 51.9375 C31.88037763 52.06860443 47.47706562 57.18648353 63.6875 64.375 C64.44869141 64.71080078 65.20988281 65.04660156 65.99414062 65.39257812 C79.758314 71.52465536 92.55997867 78.70622132 104.86328125 87.41796875 C106.98707666 88.88964441 109.04536488 90.21507798 111.3125 91.4375 C115.29864454 93.72584224 118.90211668 96.37426443 122.59765625 99.1015625 C125.93799994 101.55931222 129.30862307 103.97071947 132.6875 106.375 C142.78738175 113.57747561 152.78238447 120.90726892 162.6875 128.375 C160.33492308 125.32286826 158.03011824 122.64367765 155.0625 120.1875 C151.77985099 117.38687566 148.71773989 114.44719705 145.6875 111.375 C142.86535308 108.5229665 140.04354849 105.73941475 137 103.125 C127.69511239 95.13065994 118.85160943 86.61566547 110.25 77.875 C106.14696214 73.70892585 102.08823997 69.87987672 97.27734375 66.5234375 C94.81376751 64.74385172 92.80589263 62.54635245 90.6875 60.375 C88.82512467 58.69845822 86.93750523 57.05410901 85.04296875 55.4140625 C83.67178819 54.22707037 82.30567772 53.03407382 80.95288086 51.82617188 C65.05293008 37.69986601 46.73384847 24.30806436 26.44921875 17.375 C23.6875 16.375 23.6875 16.375 20.62109375 14.82421875 C7.2725723 8.22994251 -11.35657391 10.19858282 -25.24609375 14.109375 C-28.49249844 15.44929235 -30.63598489 17.13046819 -33.3125 19.375 C-35.3828125 20.359375 -35.3828125 20.359375 -37.4375 21.125 C-48.18555791 25.70584724 -57.48201903 34.25984817 -65.47265625 42.640625 C-67.3125 44.375 -67.3125 44.375 -69.3125 44.375 C-69.54195313 44.92671875 -69.77140625 45.4784375 -70.0078125 46.046875 C-71.68043899 49.03156179 -73.81255108 51.16056025 -76.1875 53.625 C-88.08274152 66.30287508 -97.68185726 80.95473776 -107.3125 95.375 C-108.03783936 96.45998779 -108.03783936 96.45998779 -108.77783203 97.56689453 C-115.14886227 107.14214585 -121.03544514 116.93841946 -126.7421875 126.921875 C-128.96001679 130.79113916 -131.26616146 134.59009557 -133.625 138.375 C-138.83678934 146.77354806 -143.43642798 155.28113872 -147.3125 164.375 C-151.2725 164.375 -155.2325 164.375 -159.3125 164.375 C-158.9014923 158.39149262 -156.16261468 154.40143905 -153 149.5 C-149.87060507 144.58415578 -146.91801277 139.719017 -144.37426758 134.47460938 C-142.22452312 130.22356263 -139.74564783 126.15563571 -137.3125 122.0625 C-136.7443457 121.10480713 -136.17619141 120.14711426 -135.59082031 119.16040039 C-127.30030879 105.25140233 -118.72152599 91.55779654 -109.3125 78.375 C-108.8160498 77.67487793 -108.31959961 76.97475586 -107.80810547 76.25341797 C-97.79221905 62.14327079 -87.2178935 48.93219267 -75.3125 36.375 C-74.48878906 35.49714844 -73.66507812 34.61929688 -72.81640625 33.71484375 C-62.34101944 22.86103574 -50.65875382 14.32823347 -37.3125 7.375 C-36.14847656 6.74464844 -36.14847656 6.74464844 -34.9609375 6.1015625 C-23.97466519 0.62899989 -12.03447815 0.09153628 0 0 Z " fill="#F5F8FB" transform="translate(478.3125,27.625)"/>
<path d="M0 0 C9.57 0 19.14 0 29 0 C33.62062388 8.02529411 38.15269759 16.05810799 42.45703125 24.2578125 C43.822029 26.68370724 45.32400133 28.78807152 47 31 C47.6875 33.25 47.6875 33.25 48 35 C48.66 35 49.32 35 50 35 C50.32762329 34.21254395 50.32762329 34.21254395 50.66186523 33.40917969 C53.37077517 27.09091788 56.61020688 21.18879135 60.0625 15.25 C60.85624023 13.87134766 60.85624023 13.87134766 61.66601562 12.46484375 C63.10350685 9.97223037 64.54516102 7.48252673 66 5 C66.41991211 4.08677979 66.83982422 3.17355957 67.27246094 2.23266602 C69 0 69 0 71.91088867 -0.56762695 C73.0682251 -0.54144287 74.22556152 -0.51525879 75.41796875 -0.48828125 C76.67158203 -0.47216797 77.92519531 -0.45605469 79.21679688 -0.43945312 C80.52712891 -0.39755859 81.83746094 -0.35566406 83.1875 -0.3125 C84.52274529 -0.28741661 85.85803529 -0.26460348 87.19335938 -0.24414062 C90.46336707 -0.18511522 93.73112333 -0.10281476 97 0 C95.72341094 3.41939472 94.25086771 6.39484503 92.26953125 9.45703125 C91.72071289 10.31127686 91.17189453 11.16552246 90.60644531 12.0456543 C90.01444336 12.95871338 89.42244141 13.87177246 88.8125 14.8125 C87.5524414 16.77283103 86.29336332 18.73379258 85.03515625 20.6953125 C84.04926514 22.23106934 84.04926514 22.23106934 83.04345703 23.79785156 C78.91159747 30.27257915 74.86124928 36.79845191 70.80004883 43.31762695 C70.20087646 44.27886475 69.6017041 45.24010254 68.984375 46.23046875 C68.45553711 47.08020264 67.92669922 47.92993652 67.38183594 48.80541992 C66.28093207 50.55383421 65.14608925 52.28086613 64 54 C64.35865078 57.31244443 65.88533559 59.65570248 67.6875 62.40625 C68.22117187 63.23253906 68.75484375 64.05882812 69.3046875 64.91015625 C69.86414063 65.76480469 70.42359375 66.61945313 71 67.5 C72.10927501 69.19458372 73.21364874 70.8923885 74.3125 72.59375 C75.04919922 73.71813477 75.04919922 73.71813477 75.80078125 74.86523438 C76.96252249 76.93328515 77.55379376 78.68235229 78 81 C78.66 81 79.32 81 80 81 C81.09399414 82.43017578 81.09399414 82.43017578 82.28515625 84.4453125 C82.72947998 85.18652344 83.17380371 85.92773438 83.6315918 86.69140625 C84.1037915 87.49449219 84.57599121 88.29757812 85.0625 89.125 C86.04794893 90.77435274 87.03494982 92.42277914 88.0234375 94.0703125 C88.5194043 94.89821289 89.01537109 95.72611328 89.52636719 96.57910156 C92.03682557 100.70330721 94.68287854 104.7391438 97.35766602 108.75830078 C100 112.78720606 100 112.78720606 100 115 C90.1 115 80.2 115 70 115 C63.375 102.6875 63.375 102.6875 61.32568359 98.87768555 C57.57301987 91.90603386 53.80018549 84.94586522 50 78 C49.34 78 48.68 78 48 78 C45.9718673 81.50036388 43.94559837 85.00179974 41.92089844 88.50415039 C41.23486072 89.69030384 40.54835332 90.8761858 39.86132812 92.06176758 C38.86198039 93.78651905 37.86458118 95.51239905 36.8671875 97.23828125 C36.27019043 98.26993408 35.67319336 99.30158691 35.05810547 100.36450195 C32.31451246 105.21086535 29.66676104 110.11093809 27 115 C17.43 115 7.86 115 -2 115 C-0.60977953 111.52444883 0.55346295 108.88616276 2.4765625 105.796875 C2.97486572 104.9932251 3.47316895 104.1895752 3.98657227 103.36157227 C4.52725342 102.49975342 5.06793457 101.63793457 5.625 100.75 C6.46985962 99.39442993 6.46985962 99.39442993 7.33178711 98.01147461 C13.33923702 88.40167667 19.44486509 78.85380113 25.56640625 69.31640625 C26.46190186 67.91285889 26.46190186 67.91285889 27.37548828 66.48095703 C28.70016095 64.45791471 30.08582206 62.52852696 31.52734375 60.58984375 C33.25454248 58.14269381 33.25454248 58.14269381 32.73144531 55.59375 C32.01164211 53.04128364 31.14242713 51.16816236 29.76953125 48.91015625 C29.30305176 48.13647705 28.83657227 47.36279785 28.35595703 46.56567383 C27.5919458 45.32660278 27.5919458 45.32660278 26.8125 44.0625 C26.2851123 43.19584717 25.75772461 42.32919434 25.21435547 41.4362793 C17.44294411 28.72798976 9.55166736 16.05650425 1.07958984 3.80151367 C0 2 0 2 0 0 Z " fill="#FAFCFD" transform="translate(237,211)"/>
<path d="M0 0 C5.50579202 4.67195269 7.62068244 11.10341221 9 18 C9 22.62 9 27.24 9 32 C-6.51 32 -22.02 32 -38 32 C-37.03655383 40.67101556 -35.91248759 46.65691438 -29.28125 52.51953125 C-23.42802117 56.02898837 -16.57608052 55.99769992 -10 55 C-6.16965088 53.80369618 -2.60997786 52.14531286 1.00390625 50.41015625 C4 49 4 49 8 48 C8 52.29 8 56.58 8 61 C5.75083381 61.81487171 3.50073022 62.62696918 1.25 63.4375 C0.61578125 63.66759766 -0.0184375 63.89769531 -0.671875 64.13476562 C-11.96362796 68.19273935 -23.20856969 68.28513231 -34.25 63.1875 C-41.56808472 59.23138687 -46.32437028 52.63434652 -49.1171875 44.91015625 C-52.10048097 33.71720927 -51.55836304 19.7540476 -46.484375 9.33984375 C-43.42823112 4.52239589 -40.41290208 1.29075137 -35.5625 -1.75 C-34.63566406 -2.34296875 -33.70882812 -2.9359375 -32.75390625 -3.546875 C-22.01922259 -9.21113361 -9.61706401 -6.47558856 0 0 Z " fill="#F7FAFC" transform="translate(599,240)"/>
<path d="M0 0 C3.96 0 7.92 0 12 0 C12.0093457 1.47799072 12.01869141 2.95598145 12.02832031 4.47875977 C12.0682866 9.97873729 12.134065 15.47815938 12.20751953 20.9777832 C12.23569047 23.3549891 12.2569242 25.73228798 12.27099609 28.10961914 C12.29247849 31.53319779 12.33915873 34.95566289 12.390625 38.37890625 C12.39185364 39.43646622 12.39308228 40.49402618 12.39434814 41.58363342 C12.51902344 47.90956739 13.1968817 51.8711468 17 57 C20.73576259 59.49050839 23.67344293 59.6401145 28 59 C32.49456605 57.35009601 36.22085407 54.90703533 40 52 C40.66 52 41.32 52 42 52 C42 34.84 42 17.68 42 0 C46.29 0 50.58 0 55 0 C55 22.77 55 45.54 55 69 C50.71 69 46.42 69 42 69 C42 67.02 42 65.04 42 63 C41.030625 63.763125 40.06125 64.52625 39.0625 65.3125 C32.39989868 70.03128403 25.13214213 72.03998976 17 71 C12.00178264 69.91930435 8.19243049 68.16293977 5.08538818 63.90339661 C0.46023505 55.79247287 -0.56979054 47.95805776 -0.390625 38.76953125 C-0.38496521 37.65309738 -0.37930542 36.53666351 -0.37347412 35.38639832 C-0.35129198 31.86130759 -0.30112917 28.33727743 -0.25 24.8125 C-0.22991156 22.40561376 -0.21166493 19.9987114 -0.1953125 17.59179688 C-0.15148667 11.72746321 -0.08258582 5.86391068 0 0 Z " fill="#F3F7FB" transform="translate(412,236)"/>
<path d="M0 0 C0 4.29 0 8.58 0 13 C-3.54295839 12.1142604 -5.29508018 11.26671305 -8.3125 9.4375 C-14.82235063 6.10507646 -21.85689069 5.81628474 -29 7 C-32.72416811 9.25707367 -32.72416811 9.25707367 -34.62890625 13 C-34.60699219 13.66 -34.58507812 14.32 -34.5625 15 C-34.56378906 15.66 -34.56507813 16.32 -34.56640625 17 C-33.73543008 19.9342055 -32.38236355 21.12587401 -30 23 C-27.12291403 23.981028 -27.12291403 23.981028 -23.9375 24.5 C-14.66433315 26.4462202 -5.39073293 28.46375833 1 36 C2.86976392 41.60929175 3.05472398 48.55255932 1.31640625 54.234375 C-1.99807355 60.45074375 -7.663951 64.30380894 -14 67 C-25.80604229 69.87064727 -36.15924497 67.84103995 -47 63 C-48 62 -48 62 -48.09765625 59.05859375 C-48.08605469 57.86363281 -48.07445312 56.66867187 -48.0625 55.4375 C-48.05347656 54.23996094 -48.04445313 53.04242188 -48.03515625 51.80859375 C-48.02355469 50.88175781 -48.01195312 49.95492187 -48 49 C-45.5814795 49.52467903 -44.19041367 49.84358877 -42.25 51.4375 C-39.53629703 53.32201595 -37.09784323 53.87110532 -33.90234375 54.5703125 C-32 55 -32 55 -29 56 C-26.8584021 56.17032265 -24.71036073 56.26617837 -22.5625 56.3125 C-20.86287109 56.36857422 -20.86287109 56.36857422 -19.12890625 56.42578125 C-15.37708809 55.91523421 -14.42045295 54.79537505 -12 52 C-11.34 52 -10.68 52 -10 52 C-10.2024751 50.5584982 -10.43818335 49.12164254 -10.6875 47.6875 C-10.81511719 46.88699219 -10.94273437 46.08648437 -11.07421875 45.26171875 C-12.39676809 42.03068048 -13.83513788 41.44500941 -17 40 C-19.90880119 39.08650712 -22.85378194 38.35746424 -25.8125 37.625 C-34.04213013 35.43739763 -40.73773146 33.45383247 -46 26.375 C-48.76532744 21.4161586 -48.87725401 16.52835548 -48 11 C-45.94566319 4.66780888 -40.67367365 0.05754202 -34.984375 -3.12890625 C-23.70224165 -8.08149628 -10.97229472 -3.65743157 0 0 Z " fill="#F3F7FA" transform="translate(401,239)"/>
<path d="M0 0 C3.96 0 7.92 0 12 0 C12 6.6 12 13.2 12 20 C18.93 20 25.86 20 33 20 C33 23.3 33 26.6 33 30 C26.07 30 19.14 30 12 30 C12.07404042 36.03301795 12.15690777 42.06456435 12.26245117 48.09692383 C12.29567083 50.14827816 12.32371197 52.19972325 12.34643555 54.2512207 C12.3800357 57.20302949 12.43235476 60.15400886 12.48828125 63.10546875 C12.49467117 64.02023483 12.5010611 64.93500092 12.50764465 65.87748718 C12.61854869 70.69883641 12.8151121 74.1132165 16 78 C20.88867901 80.44433951 27.85153098 79.05609621 33 78 C33 81.3 33 84.6 33 88 C28.71711027 90.08717823 24.74649772 90.36630177 20.0625 90.375 C19.37220703 90.39949219 18.68191406 90.42398438 17.97070312 90.44921875 C12.80874983 90.47857583 9.93606427 89.28005356 6 86 C4.35546875 84 4.35546875 84 3.1875 82 C2.59001953 81.01 2.59001953 81.01 1.98046875 80 C0.27414017 76.51936163 -0.12458861 73.35683512 -0.11352539 69.50683594 C-0.11341209 68.18591949 -0.11341209 68.18591949 -0.11329651 66.83831787 C-0.10813522 65.89651672 -0.10297394 64.95471558 -0.09765625 63.984375 C-0.0962413 63.01340881 -0.09482635 62.04244263 -0.09336853 61.04205322 C-0.08777663 57.94467065 -0.07522559 54.84736068 -0.0625 51.75 C-0.05748395 49.64843854 -0.05292123 47.54687596 -0.04882812 45.4453125 C-0.03780985 40.29684708 -0.02055074 35.14843584 0 30 C-2.64 30 -5.28 30 -8 30 C-8 26.7 -8 23.4 -8 20 C-5.36 20 -2.72 20 0 20 C0 13.4 0 6.8 0 0 Z " fill="#F7FAFC" transform="translate(512,216)"/>
<path d="M0 0 C1.06734375 0.05800781 2.1346875 0.11601562 3.234375 0.17578125 C4.31203125 0.22089844 5.3896875 0.26601563 6.5 0.3125 C7.31984375 0.37050781 8.1396875 0.42851562 8.984375 0.48828125 C7.36496233 5.81223272 3.94204856 9.75277971 0.546875 14.05078125 C-0.07477539 14.84492432 -0.69642578 15.63906738 -1.33691406 16.45727539 C-5.94819225 22.287417 -10.78601513 27.81778921 -15.90625 33.203125 C-18.13571139 35.49857933 -18.13571139 35.49857933 -20.015625 38.48828125 C-20.675625 38.48828125 -21.335625 38.48828125 -22.015625 38.48828125 C-22.015625 39.14828125 -22.015625 39.80828125 -22.015625 40.48828125 C-23.34375 41.86328125 -23.34375 41.86328125 -25.265625 43.48828125 C-26.00039062 44.10960937 -26.73515625 44.7309375 -27.4921875 45.37109375 C-28.32492188 46.06976563 -29.15765625 46.7684375 -30.015625 47.48828125 C-31.35753906 48.66003906 -31.35753906 48.66003906 -32.7265625 49.85546875 C-45.33892905 60.70954291 -59.29061763 70.86006581 -76.015625 73.48828125 C-76.015625 70.18828125 -76.015625 66.88828125 -76.015625 63.48828125 C-74.9225 62.95203125 -73.829375 62.41578125 -72.703125 61.86328125 C-55.21489701 53.08837812 -39.37101723 42.94231757 -26.015625 28.48828125 C-25.50386719 27.93527344 -24.99210937 27.38226563 -24.46484375 26.8125 C-19.32033905 21.0786487 -14.57658952 15.00482316 -9.78515625 8.9765625 C-9.3061084 8.38270752 -8.82706055 7.78885254 -8.33349609 7.17700195 C-7.1692626 5.68515256 -6.09796244 4.12178175 -5.04296875 2.55078125 C-3.015625 0.48828125 -3.015625 0.48828125 0 0 Z " fill="#F5F9FB" transform="translate(231.015625,343.51171875)"/>
<path d="M0 0 C7.91143111 1.27979033 14.70137971 3.71436681 22 7 C22 7.66 22 8.32 22 9 C22.72445312 9.27328125 23.44890625 9.5465625 24.1953125 9.828125 C35.04499099 14.36141685 42.97554582 22.37468358 51.29345703 30.40869141 C52.87039643 31.87914792 54.48815842 33.24341845 56.16796875 34.59375 C59.00066981 37.00056911 61.19791747 39.46403333 63.5 42.375 C65.92177779 45.41977135 68.359777 48.42946162 70.9140625 51.36328125 C74.08826602 55.0473727 77.00276367 58.89049251 79.875 62.8125 C80.37257813 63.47958984 80.87015625 64.14667969 81.3828125 64.83398438 C85 69.75793055 85 69.75793055 85 72 C80.72985988 72.93898369 77.25190268 73.11371141 73 72 C69.16626219 68.38896895 66.37923646 64.25881182 63.40185547 59.93701172 C61.18204063 56.86978585 58.65677639 54.12674704 56.0625 51.375 C55.56218262 50.84253662 55.06186523 50.31007324 54.54638672 49.76147461 C53.03794766 48.16745551 51.51973641 46.58324338 50 45 C49.27127686 44.23042969 49.27127686 44.23042969 48.52783203 43.4453125 C34.60795897 28.78596072 19.16492977 16.96906537 0 10 C0 6.7 0 3.4 0 0 Z " fill="#F5F8FB" transform="translate(155,120)"/>
<path d="M0 0 C3.96 0 7.92 0 12 0 C12 22.77 12 45.54 12 69 C8.04 69 4.08 69 0 69 C0 46.23 0 23.46 0 0 Z " fill="#F4F8FB" transform="translate(482,236)"/>
<path d="M0 0 C0.99 0 1.98 0 3 0 C3 3.96 3 7.92 3 12 C2.01 12 1.02 12 0 12 C-0.33 12.99 -0.66 13.98 -1 15 C-2.8984375 15.9921875 -2.8984375 15.9921875 -5.375 16.875 C-9.11624582 18.2653637 -12.71251621 19.77665974 -16.3125 21.5 C-31.29241365 28.33000259 -47.57194798 31.62385008 -64 31 C-64 27.37 -64 23.74 -64 20 C-62.92363281 19.96261719 -61.84726563 19.92523438 -60.73828125 19.88671875 C-52.43715268 19.53467686 -44.70651528 18.78061677 -36.63671875 16.62109375 C-34 16 -34 16 -30 16 C-30 15.34 -30 14.68 -30 14 C-29.39486572 13.84289551 -28.78973145 13.68579102 -28.16625977 13.52392578 C-21.61038099 11.70596729 -15.89397086 9.13251834 -9.9375 5.875 C-9.08478516 5.41996094 -8.23207031 4.96492188 -7.35351562 4.49609375 C-3.43764163 2.58788146 -3.43764163 2.58788146 0 0 Z " fill="#F2F7FA" transform="translate(219,314)"/>
<path d="M0 0 C22.24668898 -1.32596159 46.94746657 5.42886959 65.59667969 17.69897461 C67 19 67 19 67.78125 21.89453125 C67.6884375 22.85746094 67.595625 23.82039063 67.5 24.8125 C67.4278125 25.78832031 67.355625 26.76414063 67.28125 27.76953125 C67.1884375 28.50558594 67.095625 29.24164063 67 30 C62.25 29.125 62.25 29.125 60 28 C60 27.34 60 26.68 60 26 C57.03 25.01 54.06 24.02 51 23 C51 22.34 51 21.68 51 21 C50.29746094 20.88398438 49.59492188 20.76796875 48.87109375 20.6484375 C45.74757999 19.94299085 43.01802887 18.85491744 40.0625 17.625 C27.08714342 12.58306413 13.75010381 11.24601154 0 10 C0 6.7 0 3.4 0 0 Z " fill="#F7FAFC" transform="translate(155,192)"/>
<path d="M0 0 C3.89785347 2.24876162 6.42774212 5.0580567 7.625 9.4375 C7.625 12.0775 7.625 14.7175 7.625 17.4375 C-3.925 17.4375 -15.475 17.4375 -27.375 17.4375 C-26.15480324 6.45572917 -26.15480324 6.45572917 -20.375 1.4375 C-14.26712895 -2.86577278 -6.76696441 -2.92898459 0 0 Z " fill="#2D81B9" transform="translate(588.375,245.5625)"/>
<path d="M0 0 C4.29 0 8.58 0 13 0 C13 3.96 13 7.92 13 12 C8.71 12 4.42 12 0 12 C0 8.04 0 4.08 0 0 Z " fill="#F8FAFC" transform="translate(482,213)"/>
<path d="M0 0 C-1.06516922 2.48539485 -2.00731493 4.00685775 -4 5.875 C-6.56863759 8.30618947 -6.56863759 8.30618947 -8 14 C2.89 14 13.78 14 25 14 C25 12.02 25 10.04 25 8 C25.33 8 25.66 8 26 8 C26 10.64 26 13.28 26 16 C14.45 16 2.9 16 -9 16 C-7.87139349 5.84254144 -7.87139349 5.84254144 -5.0625 2.9375 C-4.53785156 2.36902344 -4.01320313 1.80054688 -3.47265625 1.21484375 C-2 0 -2 0 0 0 Z " fill="#5596C4" transform="translate(570,247)"/>
<path d="M0 0 C0.66 0.33 1.32 0.66 2 1 C-4.30088759 7.45170671 -10.72898612 13.64325747 -18 19 C-18 18.01 -18 17.02 -18 16 C-18.66 15.67 -19.32 15.34 -20 15 C-13.33333333 10 -6.66666667 5 0 0 Z " fill="#4A91C2" transform="translate(640,380)"/>
<path d="M0 0 C5.76774721 4.89004655 11.39476999 9.92484204 17 15 C12.8612826 15 11.32120614 13.24740149 8.0625 10.75 C7.02222656 9.96109375 5.98195313 9.1721875 4.91015625 8.359375 C2.43448263 6.35225169 0.1943497 4.30538908 -2 2 C-1.34 2 -0.68 2 0 2 C0 1.34 0 0.68 0 0 Z " fill="#5094C4" transform="translate(626,141)"/>
<path d="M0 0 C0 3 0 3 -2.375 5.6875 C-5 8 -5 8 -7 8 C-7.2475 8.5775 -7.495 9.155 -7.75 9.75 C-9.16683317 12.3002997 -10.87627537 14.01785701 -13 16 C-13.66 15.67 -14.32 15.34 -15 15 C-10.39863498 9.46398272 -5.53601728 4.60136502 0 0 Z " fill="#5899C6" transform="translate(402,134)"/>
<path d="M0 0 C0.66 0.33 1.32 0.66 2 1 C-0.64 3.64 -3.28 6.28 -6 9 C-6.99 8.34 -7.98 7.68 -9 7 C-6.03 4.69 -3.06 2.38 0 0 Z " fill="#6CA3CC" transform="translate(640,380)"/>
<path d="M0 0 C0.33 0.66 0.66 1.32 1 2 C-1.31 4.64 -3.62 7.28 -6 10 C-6.99 9.67 -7.98 9.34 -9 9 C-8.34 9 -7.68 9 -7 9 C-6.6596875 8.1646875 -6.6596875 8.1646875 -6.3125 7.3125 C-4.64103234 4.36753316 -2.44723648 2.31843456 0 0 Z " fill="#5899C6" transform="translate(218,373)"/>
<path d="M0 0 C-1.45546502 3.39608504 -3.40860299 5.40860299 -6 8 C-7.23512079 10.13309192 -7.23512079 10.13309192 -8 12 C-8.33 11.34 -8.66 10.68 -9 10 C-3.90909091 0 -3.90909091 0 0 0 Z " fill="#5899C6" transform="translate(570,247)"/>
<path d="M0 0 C0.66 0.33 1.32 0.66 2 1 C-0.97 3.97 -3.94 6.94 -7 10 C-7 7 -7 7 -4.625 4.4375 C-3.75875 3.633125 -2.8925 2.82875 -2 2 C-1.34 1.34 -0.68 0.68 0 0 Z " fill="#D9E7F2" transform="translate(562,239)"/>
<path d="M0 0 C0.66 0.33 1.32 0.66 2 1 C-0.31 3.31 -2.62 5.62 -5 8 C-5.66 7.34 -6.32 6.68 -7 6 C-4.69 4.02 -2.38 2.04 0 0 Z " fill="#5899C6" transform="translate(196,394)"/>
<path d="M0 0 C2.31 1.98 4.62 3.96 7 6 C3.00095031 6 1.19799578 4.27413033 -2 2 C-1.34 1.34 -0.68 0.68 0 0 Z " fill="#7FAFD2" transform="translate(636,150)"/>
</svg>
